<?xml version="1.0" encoding="utf-8"?>
<!-- Generator: Adobe Illustrator 24.2.0, SVG Export Plug-In . SVG Version: 6.00 Build 0)  -->
<svg version="1.1" id="Layer_1" xmlns="http://www.w3.org/2000/svg" xmlns:xlink="http://www.w3.org/1999/xlink" x="0px" y="0px"
	 viewBox="0 0 1920 1080" style="enable-background:new 0 0 1920 1080;" xml:space="preserve">
<style type="text/css">
	.st0{fill:#FFFFFF;}
	.st1{fill:none;}
</style>
<path d="M1643.81,1045.8c0.55-17.98-0.47-33.33-1.81-45.26c-1.92-17.15-4.75-29.62-5.43-32.58c-2.13-9.22-4.33-16.49-9.05-30.77
	c-7.06-21.35-12.11-35.23-16.29-47.07c-9.2-26.05-13.79-39.08-18.1-54.31c-8.83-31.21-4.96-29-14.48-63.36
	c0.32,1.16-3.4-14.9-10.86-47.07c-1.2-5.19-4.21-18.16,0-32.58c2.5-8.57,5.76-11.52,7.24-12.67c4.13-3.22,10.05-3.4,21.72-3.62
	c11.21-0.22,16.82-0.32,21.72,1.81c7.52,3.28,6.82,6.9,14.48,10.86c6.81,3.52,12.99,3.56,23.53,3.62c14.54,0.08,17.94-2.74,27.15,0
	c2.97,0.89,11.96,3.56,12.67,9.05c0.45,3.49-2.57,7.19-5.43,9.05c-5.47,3.57-10.56,0.59-12.67,3.62c-1.35,1.93-0.14,4.38,1.81,10.86
	c1.44,4.76,2.25,9.7,3.62,14.48c3.43,11.96,0.88,26.02,0,32.58c-1.02,7.6,1.13,24.98,5.43,59.74c4.35,35.21,6.53,52.81,9.05,61.55
	c4.49,15.54,6.1,14.28,21.72,56.12c10.48,28.07,11.94,34.48,12.67,38.01c0.8,3.84,2.88,14.54,3.62,50.69
	c0.22,10.81,0.36,25.65,0,43.45H1642"/>
<polygon points="1403.34,1080 1403.34,390.4 1305.87,298 1305.87,1080 "/>
<polygon points="1534.05,1080 1534.05,523.55 1446.16,448.99 1446.16,1080 "/>
<g>
	<polygon points="1756.19,1082 1861,1082 1861,557.96 1752,557.96 	"/>
	<polygon class="st0" points="1760.38,652.29 1775.06,652.29 1775.06,629.23 1833.75,629.23 1833.75,652.29 1850.52,652.29 
		1850.52,574.73 1760.38,574.73 	"/>
</g>
<path class="st1" d="M887,485c-0.6-1.13-2.76-5.57-1-10c0.92-2.31,2.57-3.75,4-5c2.99-2.61,6.49-2.01,7-4c0.27-1.06-0.5-1.72,0-3
	c0.41-1.05,1.34-1.66,2-2"/>
<path class="st1" d="M870,494"/>
<path d="M353.29,609.25c27.2-40.44,37.46-50.35,40.58-48.7c2.86,1.51-0.54,12.53,5.41,16.23c2.4,1.49,6.16,1.7,8.12,0
	c2.55-2.21,0.45-6.29,2.71-8.12c2.27-1.84,7.7-0.4,10.82,2.71c4.77,4.75,2.84,12.12,2.71,21.64c-0.15,11.1,2.28,15.03,5.41,29.76
	c6.37,29.99,9.56,76.33,10.82,94.69c1.97,28.57,2.27,48.83,2.71,78.46c0.71,47.75-0.79,49.44,0,94.69
	c0.7,40.15,2.56,78.32,2.71,81.16c1.14,22.95,2.25,38.78,2.71,64.93c0.32,18.21,0.18,33.21,0,43.29H356"/>
<polygon points="232.98,1079.88 319.55,1079.88 319.55,360.23 232.98,344 "/>
<path d="M69.48,1053.42c-1.59-90.4-2.33-166.76-2.71-224.55c-0.28-44.02,0.71-107.8,2.71-235.37c0.56-35.54,1.62-89.57,13.53-159.62
	c3.86-22.73,7.89-41.41,10.82-54.11c13.1,5.3,26.6,8.64,32.47,2.71c7.32-7.41-2.04-24.39,2.71-27.05
	c5.6-3.15,20.73,19.33,51.4,43.29c7.88,6.15,14.64,10.73,18.94,13.53v668.25c-42.39,0-84.77,0-127.16,0"/>
<path d="M1619,216"/>
</svg>
