<?xml version="1.0" encoding="utf-8"?>
<!-- Generator: Adobe Illustrator 24.2.0, SVG Export Plug-In . SVG Version: 6.00 Build 0)  -->
<svg version="1.1" id="Layer_1" xmlns="http://www.w3.org/2000/svg" xmlns:xlink="http://www.w3.org/1999/xlink" x="0px" y="0px"
	 viewBox="0 0 1080 1080" style="enable-background:new 0 0 1080 1080;" xml:space="preserve">
<style type="text/css">
	.st0{stroke:#000000;stroke-width:2.4009;stroke-miterlimit:10;}
	.st1{fill:#ED1C24;}
	.st2{fill:#E6E7E8;}
	.st3{fill:#009444;}
</style>
<rect x="401.48" y="315.48" class="st0" width="36.98" height="764.52"/>
<g>
	<path class="st1" d="M507.56,520.31V314.27c-10.53-2.93-21.25-3.42-31.59,0c-11.5,3.8-24.11,3.53-36.33,0
		c0,68.68,0,137.36,0,206.04c11.89,4.25,23.37,4.11,33.93,0.06c7.1-2.73,18.22-3.69,33.99,0.06"/>
	<path d="M507.56,451.23c13.76,2.42,34.13,4.37,57.76,0c19.13-3.54,30.53-9.39,40.05-12.83c20.68-7.45,53.06-10.89,103.28,8.98
		l2.57,69.18v-0.19c-50.22-19.87-82.6-16.43-103.28-8.98c-9.53,3.43-20.92,9.29-40.05,12.83c-23.63,4.37-46.56,2.64-60.33,0.22
		L507.56,451.23L507.56,451.23z"/>
	<path class="st2" d="M507.56,382.41c13.76,2.42,34.13,4.37,57.76,0c19.13-3.54,30.53-9.39,40.05-12.83
		c20.68-7.45,53.06-10.89,103.28,8.98l2.57,69.18v-0.19c-50.22-19.87-82.6-16.43-103.28-8.98c-9.53,3.43-20.92,9.29-40.05,12.83
		c-23.63,4.37-46.56,2.64-60.33,0.22L507.56,382.41L507.56,382.41z"/>
	<path class="st3" d="M507.56,314.27c13.76,2.42,34.13,4.37,57.76,0c19.13-3.54,30.53-9.39,40.05-12.83
		c20.68-7.45,53.06-10.89,103.28,8.98l2.57,69.18v-0.19c-50.22-19.87-82.6-16.43-103.28-8.98c-9.53,3.43-20.92,9.29-40.05,12.83
		c-23.63,4.37-46.56,2.64-60.33,0.22L507.56,314.27L507.56,314.27z"/>
</g>
</svg>
